MoBL_ARMS_Upper_Limb_Model_OpenSim_states
version=1
nRows=11
nColumns=55
inDegrees=yes

# SIMM Motion File Header:
name MoBL_ARMS_Upper_Limb_Model_OpenSim_states
datacolumns 55
datarows 11
otherdata 1
range 0.00000000 0.00008877
endheader
time	/jointset/sternoclavicular/sternoclavicular_r2/value	/jointset/sternoclavicular/sternoclavicular_r2/speed	/jointset/sternoclavicular/sternoclavicular_r3/value	/jointset/sternoclavicular/sternoclavicular_r3/speed	/jointset/unrotscap/unrotscap_r3/value	/jointset/unrotscap/unrotscap_r3/speed	/jointset/unrotscap/unrotscap_r2/value	/jointset/unrotscap/unrotscap_r2/speed	/jointset/acromioclavicular/acromioclavicular_r2/value	/jointset/acromioclavicular/acromioclavicular_r2/speed	/jointset/acromioclavicular/acromioclavicular_r3/value	/jointset/acromioclavicular/acromioclavicular_r3/speed	/jointset/acromioclavicular/acromioclavicular_r1/value	/jointset/acromioclavicular/acromioclavicular_r1/speed	/jointset/unrothum/unrothum_r1/value	/jointset/unrothum/unrothum_r1/speed	/jointset/unrothum/unrothum_r3/value	/jointset/unrothum/unrothum_r3/speed	/jointset/unrothum/unrothum_r2/value	/jointset/unrothum/unrothum_r2/speed	/jointset/shoulder0/elv_angle/value	/jointset/shoulder0/elv_angle/speed	/jointset/shoulder1/shoulder_elv/value	/jointset/shoulder1/shoulder_elv/speed	/jointset/shoulder1/shoulder1_r2/value	/jointset/shoulder1/shoulder1_r2/speed	/jointset/shoulder2/shoulder_rot/value	/jointset/shoulder2/shoulder_rot/speed	/jointset/elbow/elbow_flexion/value	/jointset/elbow/elbow_flexion/speed	/jointset/radioulnar/pro_sup/value	/jointset/radioulnar/pro_sup/speed	/jointset/radiocarpal/deviation/value	/jointset/radiocarpal/deviation/speed	/jointset/radiocarpal/flexion/value	/jointset/radiocarpal/flexion/speed	/jointset/wrist_hand/wrist_hand_r1/value	/jointset/wrist_hand/wrist_hand_r1/speed	/jointset/wrist_hand/wrist_hand_r3/value	/jointset/wrist_hand/wrist_hand_r3/speed	/forceset/SUP/activation	/forceset/SUP/fiber_length	/forceset/ECRL/activation	/forceset/ECRL/fiber_length	/forceset/ECRB/activation	/forceset/ECRB/fiber_length	/forceset/ECU/activation	/forceset/ECU/fiber_length	/forceset/FCR/activation	/forceset/FCR/fiber_length	/forceset/FCU/activation	/forceset/FCU/fiber_length	/forceset/PQ/activation	/forceset/PQ/fiber_length
      0.00000000	    -14.09290159	      0.00000000	      5.96908796	      0.00000000	     -5.96908796	      0.00000000	     14.09290159	      0.00000000	     -2.85352590	      0.00000000	     23.06119258	      0.00000000	     10.36584735	      0.00000000	    -10.36584735	      0.00000000	    -23.06119258	      0.00000000	      2.85352590	      0.00000000	     -0.00000000	      0.00000000	     58.23500000	      0.00000000	      0.00000000	      0.00000000	     13.52900000	      0.00000000	     95.58800000	      0.00000000	     -0.00000115	      0.00000000	      0.00000000	      0.00000000	      0.00000000	      0.00000000	      0.00000000	      0.00000000	      0.00000000	      0.00000000	      0.01000000	      0.03331070	      0.01000000	      0.08885080	      0.01000000	      0.06315120	      0.01000000	      0.06146390	      0.01000000	      0.06721050	      0.01000000	      0.04799180	      0.01000000	      0.02661140
      0.00000323	    -14.09290159	      0.00000000	      5.96908796	     -0.00000000	     -5.96908796	      0.00000000	     14.09290159	     -0.00000000	     -2.85352590	     -0.00000000	     23.06119258	     -0.00000000	     10.36584735	     -0.00000000	    -10.36584735	      0.00000000	    -23.06119258	      0.00000000	      2.85352590	      0.00000000	     -0.00000000	      0.00000000	     58.23500000	     -0.00000000	      0.00000000	     -0.00000000	     13.52900000	      0.00000000	     95.58800000	     -0.00000000	     -0.00001270	     -6.66082462	      0.00000006	      0.03485381	      0.00000004	      0.02189174	      0.00000459	      2.71017747	      0.00000110	      0.62715219	      0.01000000	      0.03419439	      0.01000000	      0.08884509	      0.01000000	      0.06314793	      0.01000000	      0.06211816	      0.01000000	      0.06720743	      0.01000000	      0.04799138	      0.01000000	      0.02661140
      0.00000756	    -14.09290159	      0.00000000	      5.96908796	     -0.00000000	     -5.96908796	      0.00000000	     14.09290159	     -0.00000000	     -2.85352590	      0.00000000	     23.06119258	     -0.00000000	     10.36584735	     -0.00000000	    -10.36584735	      0.00000000	    -23.06119258	      0.00000000	      2.85352590	     -0.00000000	     -0.00000000	      0.00000000	     58.23500000	     -0.00000000	      0.00000000	     -0.00000000	     13.52900000	      0.00000000	     95.58800000	     -0.00000000	     -0.00005427	    -12.03268098	      0.00000029	      0.06882621	      0.00000017	      0.03784590	      0.00002236	      5.35181619	      0.00000492	      1.08420510	      0.01000000	      0.03488778	      0.01000000	      0.08883744	      0.01000000	      0.06314355	      0.01000000	      0.06289076	      0.01000000	      0.06720333	      0.01000000	      0.04799081	      0.01000000	      0.02661140
      0.00001188	    -14.09290159	      0.00000000	      5.96908796	      0.00000000	     -5.96908796	     -0.00000000	     14.09290159	     -0.00000000	     -2.85352590	      0.00000000	     23.06119258	      0.00000000	     10.36584735	     -0.00000000	    -10.36584735	      0.00000000	    -23.06119258	      0.00000000	      2.85352590	     -0.00000000	     -0.00000000	      0.00000000	     58.23500000	     -0.00000000	      0.00000000	     -0.00000000	     13.52900000	      0.00000000	     95.58800000	     -0.00000000	     -0.00011350	    -15.06272886	      0.00000064	      0.09360248	      0.00000035	      0.04525703	      0.00004988	      7.27837665	      0.00001013	      1.29651854	      0.01000000	      0.03525961	      0.01000000	      0.08882981	      0.01000000	      0.06313918	      0.01000000	      0.06355903	      0.01000000	      0.06719922	      0.01000000	      0.04799024	      0.01000000	      0.02661140
      0.00001621	    -14.09290159	      0.00000000	      5.96908796	     -0.00000000	     -5.96908796	      0.00000000	     14.09290159	     -0.00000000	     -2.85352590	     -0.00000000	     23.06119258	     -0.00000000	     10.36584735	     -0.00000000	    -10.36584735	      0.00000000	    -23.06119258	      0.00000000	      2.85352590	     -0.00000000	     -0.00000000	      0.00000000	     58.23500000	     -0.00000000	      0.00000000	     -0.00000000	     13.52900000	      0.00000000	     95.58800000	     -0.00000000	     -0.00018280	    -16.81699408	      0.00000109	      0.11261236	      0.00000056	      0.04827175	      0.00008470	      8.75654947	      0.00001596	      1.38288384	      0.01000000	      0.03545837	      0.01000000	      0.08882219	      0.01000000	      0.06313481	      0.01000000	      0.06413717	      0.01000000	      0.06719513	      0.01000000	      0.04798968	      0.01000000	      0.02661140
      0.00002226	    -14.09290159	      0.00000000	      5.96908796	     -0.00000000	     -5.96908796	      0.00000000	     14.09290159	     -0.00000000	     -2.85352590	      0.00000000	     23.06119258	     -0.00000000	     10.36584735	     -0.00000000	    -10.36584735	      0.00000000	    -23.06119258	      0.00000000	      2.85352590	     -0.00000000	     -0.00000000	      0.00000000	     58.23500000	     -0.00000000	      0.00000000	     -0.00000000	     13.52900000	      0.00000000	     95.58800000	     -0.00000000	     -0.00028906	    -18.18309352	      0.00000184	      0.13310502	      0.00000085	      0.04914194	      0.00014270	     10.35001490	      0.00002443	      1.40781282	      0.01000000	      0.03559301	      0.01000000	      0.08881154	      0.01000000	      0.06312872	      0.01000000	      0.06481691	      0.01000000	      0.06718941	      0.01000000	      0.04798888	      0.01000000	      0.02661140
      0.00002831	    -14.09290159	      0.00000000	      5.96908796	     -0.00000000	     -5.96908796	      0.00000000	     14.09290159	     -0.00000000	     -2.85352590	      0.00000000	     23.06119258	     -0.00000000	     10.36584735	     -0.00000000	    -10.36584735	      0.00000000	    -23.06119258	      0.00000000	      2.85352590	     -0.00000000	     -0.00000000	      0.00000000	     58.23500000	     -0.00000000	      0.00000000	     -0.00000000	     13.52900000	      0.00000000	     95.58800000	     -0.00000000	     -0.00040172	    -19.02379502	      0.00000269	      0.14924012	      0.00000115	      0.04887701	      0.00020922	     11.60464050	      0.00003293	      1.40022320	      0.01000000	      0.03566388	      0.01000000	      0.08880092	      0.01000000	      0.06312263	      0.01000000	      0.06537188	      0.01000000	      0.06718369	      0.01000000	      0.04798809	      0.01000000	      0.02661140
      0.00003660	    -14.09290159	      0.00000000	      5.96908796	     -0.00000000	     -5.96908796	      0.00000000	     14.09290159	     -0.00000000	     -2.85352590	      0.00000000	     23.06119258	     -0.00000000	     10.36584735	     -0.00000000	    -10.36584735	      0.00000000	    -23.06119258	      0.00000000	      2.85352590	     -0.00000000	     -0.00000000	      0.00000000	     58.23500000	     -0.00000000	      0.00000000	     -0.00000000	     13.52900000	      0.00000000	     95.58800000	     -0.00000000	     -0.00056291	    -19.81141200	      0.00000400	      0.16663569	      0.00000155	      0.04830369	      0.00031128	     12.95726787	      0.00004447	      1.38379883	      0.01000000	      0.03572346	      0.01000000	      0.08878639	      0.01000000	      0.06311430	      0.01000000	      0.06597063	      0.01000000	      0.06717587	      0.01000000	      0.04798700	      0.01000000	      0.02661140
      0.00004937	    -14.09290159	      0.00000000	      5.96908796	     -0.00000000	     -5.96908796	      0.00000000	     14.09290159	     -0.00000000	     -2.85352590	      0.00000000	     23.06119258	     -0.00000000	     10.36584735	     -0.00000000	    -10.36584735	      0.00000000	    -23.06119258	      0.00000000	      2.85352590	     -0.00000000	     -0.00000000	      0.00000000	     58.23500000	     -0.00000000	      0.00000000	      0.00000000	     13.52900000	      0.00000000	     95.58800000	     -0.00000000	     -0.00082151	    -20.59555249	      0.00000626	      0.18605704	      0.00000217	      0.04779488	      0.00048712	     14.46739486	      0.00006204	      1.36922247	      0.01000000	      0.03577829	      0.01000000	      0.08876404	      0.01000000	      0.06310149	      0.01000000	      0.06662067	      0.01000000	      0.06716385	      0.01000000	      0.04798533	      0.01000000	      0.02661140
      0.00006907	    -14.09290159	      0.00000000	      5.96908796	     -0.00000000	     -5.96908796	      0.00000000	     14.09290159	     -0.00000000	     -2.85352590	      0.00000000	     23.06119258	     -0.00000000	     10.36584735	     -0.00000000	    -10.36584735	      0.00000000	    -23.06119258	      0.00000000	      2.85352590	     -0.00000000	     -0.00000000	      0.00000000	     58.23500000	     -0.00000000	      0.00000000	     -0.00000000	     13.52900000	      0.00000000	     95.58800000	     -0.00000000	     -0.00123478	    -21.30141635	      0.00001014	      0.20601652	      0.00000311	      0.04790177	      0.00078840	     16.01932630	      0.00008901	      1.37228473	      0.01000000	      0.03582482	      0.01000000	      0.08872977	      0.01000000	      0.06308183	      0.01000000	      0.06724207	      0.01000000	      0.06714539	      0.01000000	      0.04798275	      0.01000000	      0.02661140
      0.00008877	    -14.09290159	      0.00000000	      5.96908796	     -0.00000000	     -5.96908796	      0.00000000	     14.09290159	     -0.00000000	     -2.85352590	      0.00000000	     23.06119258	     -0.00000000	     10.36584735	     -0.00000000	    -10.36584735	      0.00000000	    -23.06119258	      0.00000000	      2.85352590	     -0.00000000	     -0.00000000	      0.00000000	     58.23500000	     -0.00000000	      0.00000000	     -0.00000000	     13.52900000	      0.00000000	     95.58800000	     -0.00000000	     -0.00165883	    -21.72750003	      0.00001434	      0.22036440	      0.00000406	      0.04852523	      0.00111539	     17.13489422	      0.00011619	      1.39014552	      0.01000000	      0.03585047	      0.01000000	      0.08869567	      0.01000000	      0.06306226	      0.01000000	      0.06764691	      0.01000000	      0.06712700	      0.01000000	      0.04798017	      0.01000000	      0.02661140
